<?xml version="1.0" standalone="no"?>
<!DOCTYPE svg PUBLIC "-//W3C//DTD SVG 20010904//EN"
 "http://www.w3.org/TR/2001/REC-SVG-20010904/DTD/svg10.dtd">
<svg version="1.0" xmlns="http://www.w3.org/2000/svg"
 width="2013.000000pt" height="2013.000000pt" viewBox="0 0 2013.000000 2013.000000"
 preserveAspectRatio="xMidYMid meet">
<metadata>
Created by potrace 1.11, written by Peter Selinger 2001-2013
</metadata>
<g transform="translate(0.000000,2013.000000) scale(0.100000,-0.100000)"
fill="#000000" stroke="none">
<path d="M7857 17892 c-13 -3 -156 -219 -258 -390 -23 -37 -405 -649 -434
-692 -24 -38 -188 -300 -220 -354 -11 -18 -67 -108 -125 -199 -58 -92 -109
-175 -115 -185 -5 -10 -29 -47 -51 -83 -51 -78 -381 -606 -409 -653 -21 -34
-190 -305 -237 -378 -15 -24 -37 -59 -48 -78 -11 -19 -28 -47 -38 -62 -48 -75
-155 -245 -165 -263 -7 -11 -22 -34 -34 -52 -13 -17 -23 -34 -23 -37 0 -5 -33
-59 -115 -186 -12 -19 -120 -192 -240 -385 -120 -192 -244 -390 -275 -440 -32
-49 -88 -139 -125 -200 -37 -60 -82 -132 -99 -160 -37 -57 -74 -117 -130 -207
-22 -35 -54 -85 -71 -113 -18 -27 -62 -99 -100 -160 -37 -60 -82 -132 -100
-160 -18 -27 -108 -171 -200 -320 -92 -148 -182 -292 -200 -320 -17 -27 -71
-113 -119 -190 -48 -77 -92 -147 -97 -155 -72 -114 -598 -957 -655 -1050 -43
-69 -91 -147 -109 -175 -47 -74 -172 -273 -260 -415 -79 -127 -102 -164 -147
-235 -14 -22 -135 -215 -268 -430 -134 -214 -258 -412 -275 -440 -18 -27 -119
-189 -225 -360 -106 -170 -203 -326 -215 -345 -57 -88 -262 -417 -268 -430 -6
-13 -679 -1089 -707 -1130 -19 -27 -590 -944 -590 -946 0 -1 -16 -26 -35 -55
l-34 -52 34 -63 c19 -34 70 -116 113 -181 81 -121 267 -404 377 -573 62 -95
257 -392 275 -420 23 -34 336 -511 378 -575 63 -97 317 -483 421 -640 47 -71
88 -134 91 -140 17 -34 361 -545 367 -546 14 -1 1018 -7 2303 -14 1455 -8
9119 -10 9126 -3 2 3 -18 41 -46 84 -27 44 -53 86 -57 94 -4 8 -67 114 -141
235 -74 121 -142 234 -152 250 -15 27 -308 510 -566 934 -52 84 -94 157 -94
162 0 5 -4 9 -10 9 -5 0 -10 4 -10 9 0 5 -40 75 -90 156 -49 81 -90 151 -90
156 0 5 -4 9 -9 9 -5 0 -11 8 -15 18 -3 9 -15 31 -25 47 -11 17 -26 41 -34 55
-8 14 -58 97 -112 185 -53 88 -156 257 -228 375 -112 185 -231 381 -314 518
-13 20 -39 64 -59 97 -19 33 -54 92 -78 130 -166 271 -453 744 -481 793 -5 9
-28 46 -50 82 -22 36 -44 73 -50 82 -5 10 -44 73 -85 140 -41 68 -77 128 -80
133 -3 6 -18 30 -34 55 -16 25 -34 54 -40 65 -6 11 -38 64 -71 118 -33 54 -67
110 -76 125 -9 15 -67 110 -129 212 -62 102 -119 196 -127 210 -19 33 -25 44
-262 433 l-204 336 -104 -172 c-56 -95 -107 -179 -112 -187 -18 -29 -199 -327
-328 -540 -72 -118 -167 -275 -212 -348 -44 -73 -81 -135 -81 -138 0 -3 -5
-10 -10 -17 -9 -9 -290 -471 -526 -862 -14 -22 -32 -55 -41 -72 -9 -18 -20
-33 -25 -33 -4 0 -8 -4 -8 -9 0 -5 -68 -121 -151 -258 -83 -136 -161 -264
-171 -283 -11 -19 -40 -66 -64 -103 -24 -37 -44 -70 -44 -73 0 -3 -18 -32 -40
-66 -21 -33 -41 -65 -43 -71 -5 -17 -3220 -10 -3587 8 -36 2 -93 3 -127 4
l-62 1 71 113 c39 61 78 125 87 140 16 28 52 87 96 157 23 35 327 529 440 715
90 146 208 339 634 1029 209 340 381 623 381 627 0 5 5 9 10 9 6 0 10 4 10 10
0 5 19 40 43 77 54 84 128 205 487 788 155 253 315 512 354 575 39 63 76 122
81 132 6 10 37 62 71 116 71 113 564 913 579 939 6 10 17 29 26 43 9 14 70
113 136 220 111 180 303 493 534 867 52 84 106 172 121 195 31 49 40 64 87
145 19 32 42 69 52 83 9 14 70 112 135 218 145 235 131 213 230 374 45 73 184
300 309 503 126 204 263 426 305 495 146 238 292 475 315 510 12 19 38 61 58
93 l35 58 44 -68 c24 -37 63 -99 87 -138 23 -38 69 -113 101 -165 33 -52 64
-102 69 -110 66 -107 304 -491 336 -540 23 -36 54 -85 69 -110 15 -25 40 -65
55 -90 16 -25 73 -117 128 -205 54 -88 200 -322 322 -520 238 -384 253 -408
293 -470 15 -22 90 -143 169 -270 78 -126 169 -274 203 -328 34 -54 70 -113
81 -131 11 -18 92 -149 180 -290 88 -141 184 -296 213 -344 30 -48 64 -103 76
-122 27 -41 196 -312 211 -337 6 -10 17 -29 26 -43 35 -54 185 -296 194 -312
15 -26 212 -345 250 -403 18 -27 74 -117 125 -200 50 -82 103 -167 116 -187
13 -21 24 -42 24 -48 0 -5 4 -10 8 -10 5 0 19 -19 32 -42 22 -39 107 -178 164
-268 13 -19 41 -64 63 -100 22 -36 60 -96 84 -134 24 -39 49 -78 54 -88 12
-21 202 -328 250 -403 17 -27 79 -125 136 -218 57 -92 116 -186 131 -210 15
-23 33 -53 41 -67 8 -14 157 -254 332 -535 175 -280 334 -537 354 -569 20 -33
45 -75 56 -93 50 -82 510 -821 524 -842 9 -13 21 -31 26 -40 6 -9 21 -34 34
-56 64 -103 207 -335 236 -380 18 -27 173 -277 345 -555 307 -496 331 -535
382 -615 35 -55 307 -493 327 -527 17 -28 405 -652 450 -723 14 -22 30 -48 36
-58 13 -23 160 -259 198 -320 l30 -47 37 57 c20 32 112 183 205 336 94 153
194 317 223 365 30 48 86 140 125 205 40 64 79 128 87 142 8 13 33 54 56 92
22 37 78 129 124 203 85 139 210 344 239 392 19 33 278 458 330 541 20 32 48
77 62 100 14 23 58 94 96 157 172 282 327 537 344 565 l18 30 -146 240 c-80
132 -198 326 -262 430 -64 105 -123 202 -131 217 -15 26 -201 333 -329 543
-71 117 -323 532 -350 577 -9 15 -43 71 -76 125 -33 54 -65 107 -71 118 -6 11
-75 126 -154 255 -79 129 -155 255 -170 280 -15 25 -105 173 -200 330 -95 157
-192 315 -214 353 -23 37 -97 160 -166 273 -69 113 -134 221 -145 239 -43 73
-119 198 -224 370 -61 99 -126 207 -146 240 -19 33 -45 77 -58 97 -79 131
-473 780 -609 1003 -53 88 -114 189 -136 225 -21 36 -123 205 -227 375 -103
171 -195 322 -204 337 -31 52 -414 683 -469 773 -30 50 -63 104 -72 120 -10
17 -81 134 -157 260 -77 127 -230 379 -340 560 -431 712 -575 948 -698 1150
-70 116 -135 224 -145 240 -21 36 -441 728 -471 775 -32 51 -189 313 -189 315
0 5 -139 229 -150 242 -5 7 -10 15 -10 18 0 3 -56 96 -124 207 -136 224 -236
388 -251 415 -6 10 -37 62 -70 116 -33 54 -64 106 -70 115 -5 9 -82 135 -169
280 l-159 262 -1917 -2 c-1054 -2 -1924 -4 -1933 -6z"/>
</g>
</svg>
